<svg width="13" height="14" viewBox="0 0 13 14" fill="none" xmlns="http://www.w3.org/2000/svg">
<g clip-path="url(#clip0_515_690)">
<path d="M6.62783 3.85537C4.88877 3.85537 3.48603 5.25811 3.48603 6.99717C3.48603 8.73623 4.88877 10.139 6.62783 10.139C8.36689 10.139 9.76963 8.73623 9.76963 6.99717C9.76963 5.25811 8.36689 3.85537 6.62783 3.85537ZM6.62783 9.03975C5.504 9.03975 4.58525 8.12373 4.58525 6.99717C4.58525 5.87061 5.50127 4.95459 6.62783 4.95459C7.75439 4.95459 8.67041 5.87061 8.67041 6.99717C8.67041 8.12373 7.75166 9.03975 6.62783 9.03975ZM10.631 3.72686C10.631 4.13428 10.3028 4.45967 9.89815 4.45967C9.49072 4.45967 9.16533 4.13154 9.16533 3.72686C9.16533 3.32217 9.49346 2.99404 9.89815 2.99404C10.3028 2.99404 10.631 3.32217 10.631 3.72686ZM12.7118 4.47061C12.6653 3.48896 12.4411 2.61943 11.722 1.90303C11.0056 1.18662 10.136 0.962402 9.1544 0.913184C8.14268 0.855762 5.11025 0.855762 4.09854 0.913184C3.11963 0.959668 2.2501 1.18389 1.53096 1.90029C0.811816 2.6167 0.590332 3.48623 0.541113 4.46787C0.483691 5.47959 0.483691 8.51201 0.541113 9.52373C0.587598 10.5054 0.811816 11.3749 1.53096 12.0913C2.2501 12.8077 3.11689 13.0319 4.09854 13.0812C5.11025 13.1386 8.14268 13.1386 9.1544 13.0812C10.136 13.0347 11.0056 12.8104 11.722 12.0913C12.4384 11.3749 12.6626 10.5054 12.7118 9.52373C12.7692 8.51201 12.7692 5.48232 12.7118 4.47061ZM11.4048 10.6093C11.1915 11.1452 10.7786 11.5581 10.2399 11.7741C9.4333 12.094 7.51924 12.0202 6.62783 12.0202C5.73643 12.0202 3.81963 12.0913 3.01572 11.7741C2.47979 11.5608 2.06689 11.1479 1.85088 10.6093C1.53096 9.80264 1.60479 7.88857 1.60479 6.99717C1.60479 6.10576 1.53369 4.18896 1.85088 3.38506C2.06416 2.84912 2.47705 2.43623 3.01572 2.22021C3.82236 1.90029 5.73643 1.97412 6.62783 1.97412C7.51924 1.97412 9.43604 1.90303 10.2399 2.22021C10.7759 2.4335 11.1888 2.84639 11.4048 3.38506C11.7247 4.1917 11.6509 6.10576 11.6509 6.99717C11.6509 7.88857 11.7247 9.80537 11.4048 10.6093Z" fill="#8D97AD"/>
</g>
<defs>
<clipPath id="clip0_515_690">
<rect width="12.25" height="14" fill="white" transform="translate(0.5)"/>
</clipPath>
</defs>
</svg>
