<svg width="32" height="32" viewBox="0 0 32 32" fill="none" xmlns="http://www.w3.org/2000/svg">
<g clip-path="url(#clip0_29_4179)">
<path d="M14.7791 26.328C14.4011 26.328 14.0331 26.252 13.6871 26.099L11.6941 25.216C8.81406 23.945 8.58606 18.356 11.1761 12.497C13.3721 7.53097 16.8681 4.06197 19.6811 4.06197C20.1251 4.06197 20.5461 4.14797 20.9311 4.31797L22.9221 5.19797C23.5841 5.48997 24.0931 6.02397 24.3561 6.69897C24.6161 7.37397 24.6001 8.11097 24.3061 8.77297L23.7201 10.102C23.1321 11.43 21.4821 12.078 20.1451 11.488L18.1511 10.609C17.4621 10.302 15.8761 11.688 14.8081 14.103C14.2871 15.28 13.9951 16.465 13.9851 17.437C13.9761 18.219 14.1631 18.792 14.4741 18.927L16.4661 19.805C17.8331 20.411 18.4541 22.016 17.8501 23.383L17.2631 24.712C16.8271 25.694 15.8531 26.329 14.7791 26.329V26.328ZM19.6791 5.12597C17.3511 5.12597 14.1151 8.47897 12.1501 12.927C9.88106 18.062 9.86806 23.244 12.1231 24.239L14.1161 25.122C14.9281 25.478 15.9291 25.085 16.2851 24.28L16.8711 22.951C17.2391 22.123 16.8601 21.151 16.0311 20.782L14.0401 19.903C13.3011 19.575 12.9011 18.697 12.9161 17.424C12.9291 16.309 13.2531 14.976 13.8301 13.669C15.1101 10.773 17.1891 9.01397 18.5801 9.62897L20.5721 10.508C21.3871 10.867 22.3841 10.473 22.7411 9.66697L23.3291 8.33797C23.5061 7.93597 23.5181 7.48997 23.3581 7.07997C23.2011 6.66997 22.8911 6.34597 22.4911 6.16897L20.5011 5.28897C20.2491 5.17797 19.9751 5.12397 19.6811 5.12397L19.6791 5.12597ZM16.0021 31.867C13.4951 31.867 11.9641 31.33 11.3151 30.225C10.4171 28.693 11.5431 26.681 12.3661 25.21L12.4881 24.994C12.6311 24.737 12.9551 24.643 13.2131 24.787C13.4711 24.931 13.5641 25.254 13.4201 25.513L13.2971 25.733C12.6401 26.908 11.6471 28.686 12.2351 29.688C12.6631 30.417 13.9651 30.802 16.0001 30.802C24.1611 30.802 30.8001 24.162 30.8001 16.002C30.8001 7.84097 24.1601 1.20197 16.0001 1.20197C7.84006 1.20097 1.20106 7.83997 1.20106 16.001C1.20106 20.26 3.03906 24.318 6.24406 27.133C6.46606 27.328 6.48806 27.664 6.29206 27.885C6.09806 28.108 5.76106 28.129 5.53906 27.935C2.10306 24.917 0.133057 20.569 0.133057 16.001C0.133057 7.25197 7.25106 0.133972 16.0001 0.133972C24.7481 0.133972 31.8671 7.25197 31.8671 16.001C31.8671 24.75 24.7511 31.868 16.0031 31.868L16.0021 31.867Z" fill="#8D97AD"/>
</g>
<defs>
<clipPath id="clip0_29_4179">
<rect width="32" height="32" fill="white"/>
</clipPath>
</defs>
</svg>
