<svg width="13" height="14" viewBox="0 0 13 14" fill="none" xmlns="http://www.w3.org/2000/svg">
<g clip-path="url(#clip0_515_692)">
<path d="M3.49203 12.2502H0.952344V4.0717H3.49203V12.2502ZM2.22082 2.95607C1.40871 2.95607 0.75 2.28342 0.75 1.47131C0.75 1.08122 0.904961 0.707114 1.18079 0.431282C1.45663 0.155449 1.83073 0.000488281 2.22082 0.000488281C2.61091 0.000488281 2.98501 0.155449 3.26085 0.431282C3.53668 0.707114 3.69164 1.08122 3.69164 1.47131C3.69164 2.28342 3.03266 2.95607 2.22082 2.95607ZM12.9973 12.2502H10.463V8.26896C10.463 7.32014 10.4439 6.10334 9.14262 6.10334C7.82219 6.10334 7.61984 7.1342 7.61984 8.2006V12.2502H5.08289V4.0717H7.51867V5.18732H7.55422C7.89328 4.54475 8.72152 3.86662 9.95719 3.86662C12.5275 3.86662 13 5.5592 13 7.75764V12.2502H12.9973Z" fill="#8D97AD"/>
</g>
<defs>
<clipPath id="clip0_515_692">
<rect width="12.25" height="14" fill="white" transform="translate(0.75)"/>
</clipPath>
</defs>
</svg>
