<svg width="32" height="32" viewBox="0 0 32 32" fill="none" xmlns="http://www.w3.org/2000/svg">
<g clip-path="url(#clip0_29_4177)">
<path d="M28.8 27.733H3.2C1.436 27.733 0 26.297 0 24.533V7.46599C0 5.70199 1.436 4.26599 3.2 4.26599H28.8C30.564 4.26599 32 5.70199 32 7.46599V24.533C32 26.297 30.564 27.733 28.8 27.733ZM3.2 5.33299C2.022 5.33299 1.067 6.28999 1.067 7.46599V24.533C1.067 25.711 2.023 26.666 3.2 26.666H28.8C29.978 26.666 30.933 25.71 30.933 24.533V7.46599C30.933 6.28899 29.977 5.33299 28.8 5.33299H3.2ZM16.255 19.773C14.942 19.773 13.712 19.223 12.794 18.225L4.518 9.17399C4.32 8.95599 4.334 8.61899 4.552 8.41999C4.769 8.22199 5.107 8.23599 5.306 8.45399L13.581 17.504C15.006 19.054 17.506 19.054 18.932 17.503L27.192 8.46499C27.392 8.24699 27.727 8.23299 27.946 8.43199C28.164 8.63099 28.179 8.96899 27.98 9.18599L19.718 18.225C18.797 19.222 17.569 19.773 16.255 19.773ZM4.911 24.021C4.767 24.021 4.622 23.961 4.517 23.846C4.318 23.63 4.334 23.291 4.551 23.094L11.828 16.449C12.046 16.251 12.384 16.266 12.582 16.483C12.78 16.7 12.765 17.039 12.548 17.236L5.271 23.881C5.167 23.975 5.039 24.021 4.911 24.021ZM27.603 24.021C27.474 24.021 27.346 23.975 27.243 23.881L19.962 17.236C19.744 17.038 19.728 16.701 19.929 16.483C20.129 16.264 20.464 16.25 20.681 16.449L27.962 23.094C28.18 23.292 28.196 23.629 27.996 23.846C27.89 23.961 27.746 24.021 27.602 24.021H27.603Z" fill="#8D97AD"/>
</g>
<defs>
<clipPath id="clip0_29_4177">
<rect width="32" height="32" fill="white"/>
</clipPath>
</defs>
</svg>
