<svg width="24" height="25" viewBox="0 0 24 25" fill="none" xmlns="http://www.w3.org/2000/svg">
<g clip-path="url(#clip0_392_353)">
<path d="M11.9999 24.3296C7.21636 24.3296 0.0996094 23.5443 0.0996094 21.3768C0.0996094 19.3128 6.45511 18.6911 8.40211 18.5493C8.62336 18.5358 8.81386 18.7001 8.83036 18.9198C8.84686 19.1396 8.68111 19.3316 8.46061 19.3481C3.30286 19.7216 0.899859 20.7791 0.899859 21.3768C0.899859 22.1283 4.71211 23.5293 11.9999 23.5293C19.2876 23.5293 23.0999 22.1276 23.0999 21.3768C23.0999 20.7611 20.6144 19.6863 15.2796 19.3293C15.0599 19.3136 14.8926 19.1231 14.9061 18.9026C14.9219 18.6836 15.1191 18.5156 15.3329 18.5306C17.3429 18.6648 23.9001 19.2663 23.9001 21.3761C23.9001 23.5436 16.7834 24.3288 11.9999 24.3288V24.3296ZM11.9999 21.3393C11.9376 21.3393 11.8754 21.3243 11.8176 21.2951C11.4719 21.1181 3.34936 16.8948 3.34936 9.27184C3.34936 4.37509 7.14961 0.538086 11.9999 0.538086C16.8501 0.538086 20.6504 4.37434 20.6504 9.27184C20.6504 16.8948 12.5279 21.1188 12.1821 21.2951C12.1244 21.3236 12.0614 21.3393 11.9999 21.3393ZM11.9999 1.33834C7.59811 1.33834 4.14961 4.82284 4.14961 9.27184C4.14961 15.8028 10.8059 19.8168 11.9999 20.4836C13.1931 19.8153 19.8494 15.7946 19.8494 9.27184C19.8501 4.82284 16.4016 1.33834 11.9999 1.33834ZM11.9999 11.7018C9.95986 11.7018 8.30011 10.0421 8.30011 8.00209C8.30011 5.96209 9.95986 4.30234 11.9999 4.30234C14.0399 4.30234 15.6996 5.96209 15.6996 8.00209C15.6996 10.0428 14.0406 11.7018 11.9999 11.7018ZM11.9999 5.10184C10.4009 5.10184 9.09961 6.40234 9.09961 8.00209C9.09961 9.60184 10.4001 10.9023 11.9999 10.9023C13.5996 10.9023 14.9001 9.60184 14.9001 8.00209C14.9001 6.40234 13.6004 5.10184 11.9999 5.10184Z" fill="#8D97AD"/>
</g>
<defs>
<clipPath id="clip0_392_353">
<rect width="24" height="24" fill="white" transform="translate(0 0.43457)"/>
</clipPath>
</defs>
</svg>
