<svg width="42" height="39" viewBox="0 0 42 39" fill="none" xmlns="http://www.w3.org/2000/svg">
<path d="M23.625 8.69385H18.375C18.201 8.69385 18.034 8.62965 17.911 8.51537C17.7879 8.40109 17.7188 8.24609 17.7188 8.08447V5.64697C17.7188 5.48536 17.7879 5.33036 17.911 5.21608C18.034 5.1018 18.201 5.0376 18.375 5.0376H23.625C23.799 5.0376 23.966 5.1018 24.089 5.21608C24.2121 5.33036 24.2812 5.48536 24.2812 5.64697V8.08447C24.2812 8.24609 24.2121 8.40109 24.089 8.51537C23.966 8.62965 23.799 8.69385 23.625 8.69385ZM19.0312 7.4751H22.9688V6.25635H19.0312V7.4751Z" fill="#8D97AD"/>
<path d="M23.625 14.7877C23.6244 15.2724 23.4168 15.7371 23.0477 16.0798C22.6786 16.4225 22.1782 16.6153 21.6562 16.6158H20.3438C19.8218 16.6153 19.3214 16.4225 18.9523 16.0798C18.5832 15.7371 18.3756 15.2724 18.375 14.7877H15.75C14.8105 14.788 13.8938 14.5191 13.125 14.0176V20.2721C13.125 20.4337 13.1941 20.5887 13.3172 20.703C13.4403 20.8173 13.6072 20.8815 13.7812 20.8815H28.2188C28.3928 20.8815 28.5597 20.8173 28.6828 20.703C28.8059 20.5887 28.875 20.4337 28.875 20.2721V14.0176C28.1062 14.519 27.1895 14.788 26.25 14.7877H23.625Z" fill="#8D97AD"/>
<path d="M28.875 7.4751H13.125C12.951 7.4751 12.784 7.5393 12.661 7.65358C12.5379 7.76786 12.4688 7.92286 12.4688 8.08447V10.522C12.4698 11.3298 12.8158 12.1042 13.4309 12.6754C14.0461 13.2466 14.8801 13.5679 15.75 13.5688H18.375C18.3756 13.0842 18.5832 12.6195 18.9523 12.2768C19.3214 11.934 19.8218 11.7413 20.3438 11.7407H21.6562C22.1782 11.7413 22.6786 11.934 23.0477 12.2768C23.4168 12.6195 23.6244 13.0842 23.625 13.5688H26.25C27.1199 13.5679 27.9539 13.2466 28.5691 12.6754C29.1842 12.1042 29.5302 11.3298 29.5312 10.522V8.08447C29.5312 7.92286 29.4621 7.76786 29.339 7.65358C29.216 7.5393 29.049 7.4751 28.875 7.4751Z" fill="#8D97AD"/>
<path d="M21.6562 12.9595H20.3438C19.9813 12.9595 19.6875 13.2323 19.6875 13.5688V14.7876C19.6875 15.1241 19.9813 15.397 20.3438 15.397H21.6562C22.0187 15.397 22.3125 15.1241 22.3125 14.7876V13.5688C22.3125 13.2323 22.0187 12.9595 21.6562 12.9595Z" fill="#8D97AD"/>
<path d="M8.53125 23.1562H3.28125C2.91881 23.1562 2.625 23.4291 2.625 23.7656V35.9531C2.625 36.2897 2.91881 36.5625 3.28125 36.5625H8.53125C8.89369 36.5625 9.1875 36.2897 9.1875 35.9531V23.7656C9.1875 23.4291 8.89369 23.1562 8.53125 23.1562Z" fill="#1DC8CD"/>
<path d="M38.6643 19.8066C37.9713 19.1607 37.0455 18.7757 36.0652 18.7258C35.0848 18.6758 34.1192 18.9645 33.3544 19.5361L26.7558 24.4377C27.4191 24.9513 27.9527 25.594 28.3189 26.3203C28.6851 27.0466 28.8749 27.8388 28.875 28.6407C28.874 29.4485 28.5279 30.2229 27.9128 30.7941C27.2977 31.3653 26.4637 31.6866 25.5938 31.6876H17.7188C17.5447 31.6876 17.3778 31.6234 17.2547 31.5091C17.1316 31.3948 17.0625 31.2398 17.0625 31.0782C17.0625 30.9166 17.1316 30.7616 17.2547 30.6473C17.3778 30.5331 17.5447 30.4688 17.7188 30.4688H25.5938C26.1157 30.4683 26.6161 30.2755 26.9852 29.9328C27.3543 29.5901 27.5619 29.1254 27.5625 28.6407C27.5619 27.9644 27.3878 27.298 27.0548 26.6966C26.7217 26.0952 26.2392 25.5761 25.6472 25.1822C25.4838 25.0711 25.3125 24.9704 25.1344 24.8809C25.0832 24.8553 25.0294 24.8342 24.9769 24.8104C24.8328 24.7449 24.6851 24.6866 24.5342 24.6358C24.4788 24.6171 24.4246 24.5961 24.3683 24.5793C24.1763 24.523 23.9804 24.4785 23.7821 24.4463C23.729 24.4374 23.6752 24.4306 23.6215 24.4234C23.4054 24.3931 23.1873 24.377 22.9688 24.3751H19.215C17.5454 23.545 15.6748 23.1254 13.7812 23.1563C12.6726 23.1533 11.5687 23.2906 10.5 23.5646V35.3438H24.5044C25.3522 35.3441 26.1901 35.1745 26.961 34.8468C27.732 34.5191 28.4177 34.041 28.9716 33.4449L38.7896 22.8897C39.1892 22.455 39.3981 21.8966 39.3749 21.3254C39.3517 20.7543 39.0981 20.2121 38.6643 19.8066V19.8066Z" fill="#1DC8CD"/>
</svg>
